# xmcd CD database file
#
# Track frame offsets:
#	150
#	22770
#	39790
#	58620
#	72430
#	89452
#	114125
#	125397
#	142475
#	158902
#
# Disc length: 2358 seconds
#
# Revision: 0
# Processed by: cddbd v1.5PL3 Copyright (c) Steve Scherf et al.
# Submitted via: CDex 1.51
#
DISCID=8009340a
DTITLE=遠藤久美子 - 夢ロケッツ
DYEAR=1999
DGENRE=Pop
TTITLE0=juicy
TTITLE1=夢ロケッツ
TTITLE2=好きなら好きっ! -album mix-
TTITLE3=Rainy rainy day
TTITLE4=ナチュラリスト
TTITLE5=二人だけの宝物 -acoustic version-
TTITLE6=WE GOT THE BEAT
TTITLE7=ハッピー・ラッキー・デイ -album mix-
TTITLE8=バンビ DO!
TTITLE9=春の風が吹いていたら
EXTD=YEAR: 1999
EXTT0=
EXTT1=
EXTT2=
EXTT3=
EXTT4=
EXTT5=
EXTT6=
EXTT7=
EXTT8=
EXTT9=
PLAYORDER=
